<?xml version="1.0" standalone="no"?>
<!DOCTYPE svg PUBLIC "-//W3C//DTD SVG 20010904//EN"
 "http://www.w3.org/TR/2001/REC-SVG-20010904/DTD/svg10.dtd">
<svg version="1.0" xmlns="http://www.w3.org/2000/svg"
 width="911.000000pt" height="514.000000pt" viewBox="0 0 911.000000 514.000000"
 preserveAspectRatio="xMidYMid meet">

<g transform="translate(0.000000,514.000000) scale(0.100000,-0.100000)"
fill="#000000" stroke="none">
<path d="M318 5030 c-55 -14 -189 -84 -221 -115 -15 -15 -37 -44 -50 -64 l-22
-36 0 -2240 c0 -2123 1 -2242 18 -2272 31 -57 86 -103 175 -144 102 -48 170
-58 234 -36 25 8 739 439 1589 957 1944 1188 1908 1165 1946 1202 54 52 72
111 75 240 3 130 -12 176 -75 238 -20 19 -240 165 -489 325 -249 159 -1024
656 -1722 1103 -698 448 -1283 820 -1300 827 -45 19 -115 25 -158 15z m1420
-1458 c642 -412 1271 -816 1399 -897 l232 -149 -47 -30 c-36 -22 -2720 -1662
-2754 -1683 -5 -2 -8 786 -8 1751 0 966 2 1756 5 1756 3 0 531 -337 1173 -748z"/>
<path d="M4167 4983 c-4 -3 -7 -82 -7 -175 l0 -168 169 0 168 0 7 38 c3 20 6
99 6 175 l0 137 -168 0 c-93 0 -172 -3 -175 -7z"/>
<path d="M4840 4810 l0 -170 170 0 170 0 0 170 0 170 -170 0 -170 0 0 -170z"/>
<path d="M5520 4810 l0 -170 170 0 170 0 0 170 0 170 -170 0 -170 0 0 -170z"/>
<path d="M6200 4810 l0 -170 170 0 170 0 0 170 0 170 -170 0 -170 0 0 -170z"/>
<path d="M6844 4957 c-2 -7 -3 -85 -2 -172 l3 -160 168 -3 167 -2 0 175 0 175
-165 0 c-126 0 -167 -3 -171 -13z"/>
<path d="M4174 4347 c-2 -7 -3 -85 -2 -172 l3 -160 168 -3 167 -2 0 175 0 175
-165 0 c-126 0 -167 -3 -171 -13z"/>
<path d="M6844 4277 c-2 -7 -3 -85 -2 -172 l3 -160 168 -3 167 -2 0 175 0 175
-165 0 c-126 0 -167 -3 -171 -13z"/>
<path d="M5947 3783 c-4 -3 -7 -80 -7 -170 l0 -163 170 0 170 0 0 170 0 170
-163 0 c-90 0 -167 -3 -170 -7z"/>
<path d="M6627 3783 c-4 -3 -7 -80 -7 -170 l0 -163 170 0 170 0 0 170 0 170
-163 0 c-90 0 -167 -3 -170 -7z"/>
<path d="M7307 3783 c-4 -3 -7 -80 -7 -170 l0 -163 170 0 170 0 0 170 0 170
-163 0 c-90 0 -167 -3 -170 -7z"/>
<path d="M7987 3783 c-4 -3 -7 -80 -7 -170 l0 -163 170 0 170 0 0 170 0 170
-163 0 c-90 0 -167 -3 -170 -7z"/>
<path d="M8667 3783 c-4 -3 -7 -80 -7 -170 l0 -163 170 0 170 0 0 170 0 170
-163 0 c-90 0 -167 -3 -170 -7z"/>
<path d="M4174 3667 c-2 -7 -3 -85 -2 -172 l3 -160 168 -3 167 -2 0 175 0 175
-165 0 c-126 0 -167 -3 -171 -13z"/>
<path d="M5950 3285 l0 -34 -562 -3 c-530 -3 -565 -4 -598 -22 -19 -10 -76
-60 -127 -111 -77 -78 -94 -101 -107 -146 -14 -47 -16 -195 -16 -1320 0 -1484
-14 -1320 128 -1460 141 -140 -43 -124 1457 -124 1257 0 1301 1 1335 19 42 23
194 176 218 220 16 29 17 133 22 1310 3 853 2 1296 -5 1330 -13 64 -38 100
-138 198 -55 54 -91 81 -124 92 -40 14 -121 16 -595 16 l-548 0 0 35 0 35
-170 0 -170 0 0 -35z m1210 -1630 l0 -1055 -1040 0 -1040 0 0 1055 0 1055
1040 0 1040 0 0 -1055z"/>
<path d="M8765 3038 c-4 -79 -6 -154 -4 -168 l4 -25 168 -3 167 -2 0 63 c0 35
3 112 7 170 l6 107 -170 0 -171 0 -7 -142z"/>
<path d="M4174 2987 c-2 -7 -3 -85 -2 -172 l3 -160 168 -3 167 -2 0 175 0 175
-165 0 c-126 0 -167 -3 -171 -13z"/>
<path d="M8760 2330 l0 -170 170 0 170 0 0 170 0 170 -170 0 -170 0 0 -170z"/>
<path d="M4164 2307 c-2 -7 -3 -85 -2 -172 l3 -160 173 -3 172 -2 0 175 0 175
-170 0 c-130 0 -172 -3 -176 -13z"/>
<path d="M8760 1650 l0 -170 170 0 170 0 0 170 0 170 -170 0 -170 0 0 -170z"/>
<path d="M7940 970 l0 -170 170 0 170 0 0 170 0 170 -170 0 -170 0 0 -170z"/>
<path d="M8620 970 l0 -170 240 0 240 0 0 170 0 170 -240 0 -240 0 0 -170z"/>
</g>
</svg>
